<svg width="1557" height="777" viewBox="0 0 1557 777" fill="none" xmlns="http://www.w3.org/2000/svg">
<path d="M756.541 551.295C312.895 1025.57 1 601.712 1 601.712V1H1556V601.712C1234.75 601.712 1200.19 77.0179 756.541 551.295Z" fill="url(#paint0_linear)" stroke="black"/>
<g clip-path="url(#clip0)">
<path d="M372.728 432.287C373.399 433.834 374.108 435.398 374.836 436.935L373.276 437.661C372.539 436.107 371.823 434.526 371.145 432.961L372.728 432.287Z" fill="#E6E6E6"/>
<path d="M650.979 308.511C651.963 310.589 652.909 312.706 653.789 314.805L652.198 315.46C650.879 312.318 649.421 309.151 647.883 306.088L649.427 305.328C649.955 306.38 650.472 307.44 650.979 308.511ZM644.429 296.164L642.942 297.027C641.195 294.07 639.327 291.142 637.389 288.322L638.813 287.361C640.773 290.213 642.662 293.174 644.429 296.164ZM657.496 324.55C658.616 327.832 659.634 331.187 660.521 334.525L658.854 334.959C657.977 331.66 656.971 328.343 655.863 325.098L657.496 324.55ZM632.601 278.96L631.246 280.016C629.112 277.329 626.856 274.682 624.541 272.148L625.818 271.001C628.161 273.565 630.443 276.242 632.601 278.96ZM662.847 344.683C663.501 348.078 664.043 351.541 664.46 354.976L662.749 355.18C662.337 351.783 661.8 348.359 661.153 345.002L662.847 344.683ZM618.497 263.527L617.303 264.758C614.816 262.389 612.216 260.077 609.576 257.887L610.683 256.578C613.353 258.793 615.982 261.131 618.497 263.527ZM665.354 365.37C665.53 368.832 665.586 372.341 665.521 375.798L663.797 375.766C663.862 372.348 663.806 368.879 663.633 365.456L665.354 365.37ZM602.403 250.175L601.39 251.557C598.598 249.548 595.701 247.61 592.781 245.797L593.696 244.349C596.65 246.183 599.579 248.143 602.403 250.175ZM664.964 386.209C664.658 389.66 664.229 393.141 663.687 396.555L661.985 396.289C662.52 392.914 662.945 389.472 663.247 386.059L664.964 386.209ZM584.607 239.127L583.793 240.632C580.751 239.019 577.614 237.489 574.469 236.086L575.176 234.529C578.357 235.948 581.53 237.495 584.607 239.127ZM661.699 406.789C660.923 410.16 660.02 413.549 659.013 416.863L657.363 416.371C658.358 413.094 659.251 409.742 660.019 406.409L661.699 406.789ZM565.45 230.578L564.851 232.179C561.615 230.991 558.296 229.897 554.985 228.929L555.474 227.291C558.821 228.27 562.177 229.376 565.45 230.578ZM655.64 426.73C654.408 429.968 653.047 433.203 651.597 436.346L650.03 435.636C651.464 432.528 652.808 429.329 654.027 426.128L655.64 426.73ZM545.291 224.686L544.916 226.353C541.551 225.611 538.111 224.975 534.694 224.462L534.953 222.774C538.408 223.292 541.887 223.936 545.291 224.686ZM646.905 445.664C645.241 448.705 643.449 451.725 641.582 454.641L640.126 453.727C641.973 450.843 643.744 447.856 645.39 444.85L646.905 445.664ZM524.503 221.569L524.363 223.27C520.919 222.99 517.423 222.826 513.97 222.782L513.993 221.075C517.485 221.119 521.02 221.285 524.503 221.569ZM635.654 463.235C633.588 466.02 631.398 468.768 629.146 471.404L627.831 470.3C630.057 467.694 632.223 464.977 634.265 462.224L635.654 463.235ZM503.471 221.299L503.568 223.004C500.118 223.197 496.63 223.511 493.202 223.938L492.987 222.244C496.454 221.811 499.982 221.493 503.471 221.299ZM622.09 479.106C619.656 481.586 617.103 484.012 614.504 486.319L613.355 485.046C615.925 482.766 618.447 480.367 620.855 477.916L622.09 479.106ZM482.607 223.903L482.94 225.579C479.553 226.239 476.147 227.025 472.818 227.915L472.369 226.266C475.737 225.367 479.181 224.572 482.607 223.903ZM606.434 492.993C603.681 495.116 600.816 497.171 597.92 499.102L596.958 497.685C599.821 495.776 602.653 493.744 605.376 491.645L606.434 492.993ZM462.321 229.32L462.882 230.934C459.625 232.047 456.36 233.287 453.178 234.619L452.507 233.047C455.724 231.699 459.026 230.445 462.321 229.32H462.321ZM589.003 504.616C585.986 506.343 582.866 507.992 579.729 509.517L578.97 507.984C582.072 506.476 585.158 504.845 588.141 503.137L589.003 504.616ZM443.745 238.949C440.66 240.491 437.593 242.155 434.628 243.895L433.75 242.427C436.747 240.666 439.849 238.983 442.968 237.424L443.745 238.949ZM425.874 249.446C423.029 251.391 420.22 253.454 417.525 255.581L416.452 254.245C419.177 252.094 422.018 250.007 424.896 248.04L425.874 249.446ZM409.624 262.271C407.083 264.579 404.59 267.003 402.215 269.477L400.966 268.3C403.368 265.798 405.889 263.346 408.46 261.013L409.624 262.271ZM395.324 277.174C393.123 279.809 390.989 282.552 388.981 285.325L387.581 284.329C389.612 281.524 391.771 278.751 393.996 276.086L395.324 277.174ZM383.215 293.889C381.398 296.801 379.661 299.808 378.053 302.826L376.529 302.029C378.155 298.977 379.911 295.935 381.749 292.991L383.215 293.889ZM373.518 312.093C372.118 315.218 370.81 318.431 369.628 321.645L368.009 321.06C369.204 317.81 370.527 314.56 371.942 311.4L373.518 312.093ZM366.405 331.438C365.446 334.729 364.59 338.09 363.862 341.429L362.177 341.068C362.914 337.691 363.78 334.292 364.749 330.965L366.405 331.438ZM362.011 351.568C361.514 354.959 361.128 358.405 360.866 361.812L359.148 361.683C359.413 358.237 359.802 354.752 360.306 351.322L362.011 351.568ZM360.434 372.111C360.409 375.536 360.505 379.002 360.718 382.416L358.998 382.522C358.782 379.069 358.686 375.562 358.711 372.099L360.434 372.111ZM361.719 392.679C362.17 396.069 362.746 399.487 363.432 402.838L361.743 403.177C361.049 399.788 360.467 396.331 360.011 392.903L361.719 392.679ZM365.847 412.855C366.764 416.148 367.808 419.455 368.952 422.684L367.325 423.249C366.169 419.984 365.113 416.639 364.186 413.309L365.847 412.855Z" fill="#E6E6E6"/>
<path d="M569.253 512.302L569.904 513.883C568.293 514.534 566.662 515.161 565.057 515.747L564.461 514.145C566.048 513.565 567.66 512.945 569.253 512.302Z" fill="#E6E6E6"/>
<path d="M273.358 212.356C264.659 197.79 247.447 197.111 247.447 197.111C247.447 197.111 230.674 194.986 219.915 217.171C209.887 237.849 196.046 257.814 217.687 262.654L221.596 250.599L224.017 263.552C227.098 263.771 230.189 263.824 233.276 263.709C256.452 262.967 278.523 263.926 277.812 255.685C276.867 244.73 281.729 226.372 273.358 212.356Z" fill="#2F2E41"/>
<path d="M203.793 531.569V554.593L191.8 553.108V533.797L203.793 531.569Z" fill="#FFB8B8"/>
<path d="M286.992 546.423L291.489 564.248L301.983 560.535L294.488 543.452L286.992 546.423Z" fill="#FFB8B8"/>
<path d="M206.041 284.985L207.54 325.835L217.285 328.805L220.283 289.441L206.041 284.985Z" fill="#FFB8B8"/>
<path d="M209.039 322.864L207.54 325.835L194.049 338.461C194.049 338.461 184.304 346.631 188.052 351.83L197.796 347.374V344.403L220.283 328.806L209.039 322.864Z" fill="#FFB8B8"/>
<path d="M263.756 334.747V351.83L206.041 342.917L212.787 330.291L263.756 334.747Z" fill="#FFB8B8"/>
<path d="M289.99 281.271C289.99 281.271 295.237 295.383 295.986 296.869C296.736 298.354 305.731 332.519 305.731 332.519L328.217 368.17C328.217 368.17 344.707 387.481 334.213 388.224C323.72 388.966 316.224 371.884 316.224 371.884L293.738 342.917L272.751 287.956L289.99 281.271Z" fill="#FFB8B8"/>
<path d="M246.891 249.706C258.896 249.706 268.628 240.063 268.628 228.167C268.628 216.271 258.896 206.628 246.891 206.628C234.886 206.628 225.155 216.271 225.155 228.167C225.155 240.063 234.886 249.706 246.891 249.706Z" fill="#FFB8B8"/>
<path d="M240.52 242.65C240.52 242.65 240.52 258.247 232.275 260.475C224.03 262.703 239.021 279.043 239.021 279.043L269.003 264.189C269.003 264.189 256.261 259.733 260.008 242.65H240.52Z" fill="#FFB8B8"/>
<path d="M235.648 258.619L219.752 263.817C215.438 265.542 211.691 268.419 208.927 272.127C206.164 275.835 204.492 280.23 204.097 284.823C203.817 287.655 204.227 290.512 205.292 293.155C209.789 303.553 215.036 305.781 215.036 305.781C215.036 305.781 215.785 310.238 215.036 310.98C214.286 311.723 212.787 312.466 213.537 314.694C214.286 316.922 215.036 316.18 214.286 318.408C213.537 320.636 210.538 325.835 210.538 325.835C210.538 325.835 213.537 327.32 211.288 328.806C209.039 330.291 208.29 333.262 208.29 333.262C208.29 333.262 259.259 335.49 264.506 340.689L273.5 304.296C273.5 304.296 294.487 296.126 293.738 287.956C292.988 279.786 288.491 272.359 283.244 270.131C277.997 267.903 265.265 261.954 265.265 261.954C265.265 261.954 263.587 267.478 248.24 266.148C245.702 265.924 243.248 265.13 241.066 263.825C238.884 262.521 237.031 260.74 235.648 258.619V258.619Z" fill="#3F3D56"/>
<path d="M265.255 346.631C265.255 346.631 215.785 343.66 208.29 333.262L187.303 353.316L189.551 365.942L188.802 530.826C188.802 530.826 188.052 538.996 190.301 538.996C192.549 538.996 204.542 540.482 205.292 538.996C206.041 537.511 203.043 534.54 208.29 533.054C213.537 531.569 213.537 536.768 213.537 531.569C213.537 526.37 212.787 504.088 211.288 500.375C209.789 496.661 228.528 411.248 228.528 411.248C228.528 411.248 277.997 543.453 281.745 546.423C285.493 549.394 286.242 553.851 288.491 553.108C290.74 552.365 301.233 549.394 301.983 548.652C302.732 547.909 301.233 541.967 301.983 539.739C302.732 537.511 304.981 540.482 301.983 536.025C298.985 531.569 298.235 528.598 298.235 526.37C298.235 524.142 270.502 380.796 270.502 380.796C270.502 380.796 276.498 367.427 267.504 360L265.255 346.631Z" fill="#2F2E41"/>
<path d="M205.292 548.652C205.292 548.652 197.796 541.224 194.798 541.224H187.303C187.303 541.224 180.557 555.336 178.308 556.079C176.059 556.822 161.069 574.647 174.56 574.647C188.052 574.647 193.299 570.191 193.299 570.191L205.292 564.249V548.652Z" fill="#2F2E41"/>
<path d="M290.246 559.323L288.491 574.647C288.491 574.647 303.482 580.589 303.482 581.331C303.482 582.074 327.467 593.215 328.966 583.56C330.465 573.904 316.974 565.734 316.974 565.734C316.974 565.734 302.59 548.86 300.038 549.499C297.485 550.137 297.485 554.593 297.485 554.593L290.246 559.323Z" fill="#2F2E41"/>
<path d="M444.771 477.477H234.899V384.821L339.835 431.56L444.771 384.821V477.477Z" fill="#3F3D56"/>
<path d="M234.899 384.821H444.771L340.043 438.356L234.899 384.821Z" fill="#2392E6"/>
<path d="M340.043 447.003C344.863 447.003 348.77 443.132 348.77 438.355C348.77 433.579 344.863 429.708 340.043 429.708C335.223 429.708 331.315 433.579 331.315 438.355C331.315 443.132 335.223 447.003 340.043 447.003Z" fill="#E6E6E6"/>
<path d="M249.553 209.517C256.426 209.517 261.998 203.996 261.998 197.185C261.998 190.374 256.426 184.853 249.553 184.853C242.68 184.853 237.108 190.374 237.108 197.185C237.108 203.996 242.68 209.517 249.553 209.517Z" fill="#2F2E41"/>
<path d="M235.798 193.94C235.798 190.894 236.936 187.956 238.992 185.692C241.048 183.428 243.876 181.998 246.933 181.677C245.197 181.494 243.442 181.675 241.782 182.207C240.121 182.74 238.592 183.613 237.294 184.77C235.996 185.926 234.958 187.34 234.248 188.92C233.537 190.5 233.17 192.21 233.17 193.94C233.17 195.669 233.537 197.38 234.248 198.959C234.958 200.539 235.996 201.953 237.294 203.11C238.592 204.266 240.121 205.139 241.782 205.672C243.442 206.205 245.197 206.385 246.933 206.202C243.876 205.882 241.048 204.451 238.992 202.187C236.936 199.923 235.798 196.985 235.798 193.94V193.94Z" fill="#2F2E41"/>
<path d="M269.512 210.952L252.507 202.126L229.025 205.736L224.166 227L236.261 226.539L239.639 218.727V226.41L245.22 226.198L248.459 213.761L250.483 227L270.322 226.599L269.512 210.952Z" fill="#2F2E41"/>
<path d="M890 452.469H527.97V627.009H890V452.469Z" fill="#3F3D56"/>
<path d="M890 452.469H527.97V474.751H890V452.469Z" fill="#2392E6"/>
<path d="M580.438 572.047C598.653 572.047 613.418 557.416 613.418 539.368C613.418 521.319 598.653 506.688 580.438 506.688C562.224 506.688 547.458 521.319 547.458 539.368C547.458 557.416 562.224 572.047 580.438 572.047Z" fill="#E6E6E6"/>
<path d="M847.276 521.171H667.385V526.37H847.276V521.171Z" fill="#E6E6E6"/>
<path d="M847.276 536.768H667.385V541.967H847.276V536.768Z" fill="#E6E6E6"/>
<path d="M776.069 552.365H667.385V557.564H776.069V552.365Z" fill="#E6E6E6"/>
<path d="M763.351 297.56C763.351 297.56 758.455 313.501 761.252 318.352C764.05 323.204 756.356 333.6 743.766 328.748C731.176 323.897 730.477 318.352 730.477 318.352C730.477 318.352 735.373 310.728 736.772 294.787L763.351 297.56Z" fill="#A0616A"/>
<path d="M827.35 453.849C827.35 453.849 852.53 466.325 841.339 482.959C834.834 492.627 822.421 511.429 813.166 525.479C805.42 537.237 799.48 550.071 795.54 563.559L793.777 569.594L786.782 577.911L772.094 561.277C772.094 561.277 793.777 521.771 793.777 514.147C793.777 506.523 811.263 482.266 811.263 482.266L793.777 471.176C793.777 471.176 813.361 448.998 827.35 453.849Z" fill="#A0616A"/>
<path d="M745.515 496.82C745.515 496.82 744.815 516.227 744.116 523.85C743.539 530.14 749.151 547.751 747.205 567.344C746.017 580.019 746.16 592.783 747.629 605.429L750.411 630.585L729.428 632.664L722.433 575.831C722.433 575.831 718.236 535.633 720.335 522.464L719.635 494.741C719.635 494.741 735.023 489.196 745.515 496.82Z" fill="#A0616A"/>
<path d="M782.935 416.076C782.935 416.076 831.896 447.265 832.596 456.968C832.596 456.968 804.618 454.196 803.919 478.454C803.919 478.454 787.132 472.216 782.935 470.83C778.739 469.444 756.356 454.889 756.356 454.889C756.356 454.889 747.263 461.82 747.263 472.909C747.263 483.998 747.963 503.405 747.263 504.791C746.564 506.177 730.477 486.078 717.187 503.405L708.094 455.582C708.094 455.582 705.297 426.473 710.892 424.393L750.061 409.839L782.935 416.076Z" fill="#2F2E41"/>
<path d="M753.209 306.223C764.798 306.223 774.192 296.914 774.192 285.431C774.192 273.947 764.798 264.638 753.209 264.638C741.62 264.638 732.225 273.947 732.225 285.431C732.225 296.914 741.62 306.223 753.209 306.223Z" fill="#A0616A"/>
<path d="M758.455 321.817C758.455 321.817 734.786 328.012 731.582 316.251C731.582 316.251 702.499 321.817 697.603 340.531C692.706 359.244 709.493 404.294 709.493 405.68C709.493 407.066 695.504 415.383 701.799 419.542C708.094 423.7 713.69 418.849 710.892 424.393C708.094 429.938 703.198 431.324 707.395 432.71C711.592 434.097 736.772 412.611 756.356 418.156C775.941 423.7 785.733 419.542 785.733 419.542L794.515 344.334C794.857 341.453 794.467 338.533 793.378 335.839C792.289 333.146 790.537 330.766 788.281 328.916C783.898 325.341 778.082 321.479 772.444 320.431C761.252 318.352 760.787 317.214 760.787 317.214L758.455 321.817Z" fill="#D0CDE1"/>
<path d="M780.837 443.107C780.837 443.107 774.542 478.454 766.149 473.602C757.755 468.751 768.247 443.107 768.247 443.107L780.837 443.107Z" fill="#A0616A"/>
<path d="M751.618 447.681C751.618 447.681 762.525 481.908 752.819 481.451C743.113 480.993 740.453 453.448 740.453 453.448L751.618 447.681Z" fill="#A0616A"/>
<path d="M790.279 568.208C790.279 568.208 795.175 562.663 797.973 570.287C800.771 577.911 808.465 587.614 808.465 587.614C808.465 587.614 825.252 606.327 813.361 607.02C801.47 607.713 784.684 590.386 784.684 590.386L765.099 572.366C765.099 572.366 771.59 556.702 774.64 556.564C777.689 556.425 776.99 575.138 790.279 568.208Z" fill="#2F2E41"/>
<path d="M744.816 625.733C744.816 625.733 749.745 627.159 749.379 621.248C749.379 621.248 767.198 630.585 762.302 637.516C762.253 637.585 762.204 637.654 762.155 637.724C755.259 647.451 745.819 655.133 734.85 659.945C729.471 662.305 724.685 663.876 723.832 662.467C721.734 659.001 721.734 652.07 723.133 649.298C724.532 646.526 731.526 641.674 729.428 637.516C727.329 633.357 730.127 622.268 733.624 622.268C737.122 622.268 744.816 625.733 744.816 625.733Z" fill="#2F2E41"/>
<path d="M771.521 267.812C771.521 267.812 764.771 253.32 751.833 256.665C738.895 260.009 731.582 265.025 731.02 270.042C730.457 275.058 731.301 282.583 731.301 282.583C731.301 282.583 732.707 272.271 741.708 274.501C750.708 276.731 764.771 275.058 764.771 275.058L767.021 295.125C767.021 295.125 769.552 291.502 772.365 293.731C775.177 295.961 780.521 272.271 771.521 267.812Z" fill="#2F2E41"/>
<path d="M709.493 339.838C709.493 339.838 726.28 384.888 724.881 390.432C723.482 395.977 724.881 396.67 726.98 398.056C729.078 399.442 734.674 413.997 734.674 413.997C734.674 413.997 738.171 422.314 740.969 424.393C743.766 426.473 743.766 432.017 743.766 432.017C743.766 432.017 750.761 438.948 749.362 440.334C747.963 441.72 747.963 443.8 750.761 445.879C753.559 447.958 756.356 450.73 754.958 451.424C753.559 452.117 743.766 459.741 740.969 459.047C738.171 458.354 742.367 455.582 738.87 454.196C735.373 452.81 733.275 450.73 734.674 450.037C736.072 449.344 740.269 449.344 736.072 447.958C731.876 446.572 717.187 437.562 712.291 426.473C707.395 415.383 683.936 348.291 698.114 338.866C698.114 338.866 703.898 331.521 709.493 339.838Z" fill="#D0CDE1"/>
<path d="M787.132 332.214L787.416 332.331C790.058 333.423 792.392 335.136 794.215 337.323C796.038 339.509 797.296 342.104 797.88 344.881C799.407 352.124 800.91 362.602 799.722 372.412C797.624 389.739 796.225 397.363 793.427 402.908C790.629 408.453 789.93 406.373 790.629 410.532C791.329 414.69 794.826 411.225 791.329 416.769C787.831 422.314 785.733 420.928 787.132 423.7C788.531 426.473 790.629 426.473 787.831 429.938C785.034 433.403 785.034 434.79 784.334 436.176C783.635 437.562 781.536 447.958 781.536 447.958C781.536 447.958 770.345 444.493 764.05 445.879C764.05 445.879 769.646 436.176 768.247 434.097C766.848 432.017 764.75 431.324 766.848 429.245C768.946 427.166 772.444 427.859 768.946 425.78C765.449 423.7 771.744 402.215 771.744 402.215L787.132 332.214Z" fill="#D0CDE1"/>
<path d="M598.427 555.912C598.427 569.375 590.35 574.077 580.386 574.077C580.154 574.077 579.924 574.074 579.694 574.068C579.233 574.058 578.775 574.038 578.324 574.006C569.331 573.376 562.344 568.432 562.344 555.912C562.344 542.955 579.051 526.605 580.311 525.391L580.314 525.39C580.361 525.343 580.386 525.319 580.386 525.319C580.386 525.319 598.427 542.447 598.427 555.912Z" fill="#3F3D56"/>
<path d="M579.728 572.016L586.327 562.881L579.712 573.019L579.694 574.068C579.233 574.058 578.775 574.038 578.324 574.006L579.035 560.536L579.03 560.432L579.042 560.412L579.109 559.139L572.477 548.975L579.129 558.185L579.145 558.455L579.683 548.278L574.006 537.775L579.752 546.49L580.311 525.391L580.314 525.319V525.39L580.221 542.028L585.872 535.432L580.197 543.461L580.048 552.573L585.326 543.828L580.025 553.915L579.943 558.98L587.604 546.808L579.914 560.748L579.728 572.016Z" fill="#F2F2F2"/>
<path d="M133.025 520.514C132.887 520.29 129.63 514.901 128.5 503.709C127.464 493.441 128.13 476.134 137.189 451.992C154.349 406.257 133.234 369.355 133.018 368.987L134.06 368.388C134.115 368.481 139.563 377.89 142.782 392.872C147.035 412.734 145.486 433.386 138.317 452.408C121.186 498.065 133.922 519.679 134.053 519.892L133.025 520.514Z" fill="#3F3D56"/>
<path d="M126.315 366.302C130.637 366.302 134.141 362.83 134.141 358.547C134.141 354.264 130.637 350.792 126.315 350.792C121.993 350.792 118.489 354.264 118.489 358.547C118.489 362.83 121.993 366.302 126.315 366.302Z" fill="#2392E6"/>
<path d="M150.997 394.934C155.319 394.934 158.823 391.462 158.823 387.18C158.823 382.897 155.319 379.425 150.997 379.425C146.675 379.425 143.171 382.897 143.171 387.18C143.171 391.462 146.675 394.934 150.997 394.934Z" fill="#3F3D56"/>
<path d="M134.141 414.023C138.463 414.023 141.967 410.551 141.967 406.268C141.967 401.985 138.463 398.514 134.141 398.514C129.819 398.514 126.315 401.985 126.315 406.268C126.315 410.551 129.819 414.023 134.141 414.023Z" fill="#2392E6"/>
<path d="M154.609 430.129C158.931 430.129 162.435 426.657 162.435 422.374C162.435 418.091 158.931 414.62 154.609 414.62C150.287 414.62 146.783 418.091 146.783 422.374C146.783 426.657 150.287 430.129 154.609 430.129Z" fill="#2392E6"/>
<path d="M128.121 455.183C132.443 455.183 135.947 451.711 135.947 447.428C135.947 443.145 132.443 439.673 128.121 439.673C123.799 439.673 120.295 443.145 120.295 447.428C120.295 451.711 123.799 455.183 128.121 455.183Z" fill="#3F3D56"/>
<path d="M137.753 520.8C137.753 520.8 129.927 501.711 153.405 487.395L137.753 520.8Z" fill="#3F3D56"/>
<path d="M128.128 520.453C128.128 520.453 124.567 500.154 97 500.328L128.128 520.453Z" fill="#3F3D56"/>
<path d="M640.402 156H435.027V269.338H640.402V156Z" fill="#3F3D56"/>
<path d="M602.175 199.374H472.758V203.133H602.175V199.374Z" fill="white"/>
<path d="M602.175 214.41H472.758V218.169H602.175V214.41Z" fill="white"/>
<path d="M602.175 229.446H472.758V233.204H602.175V229.446Z" fill="white"/>
<path d="M640.402 156.123H435.027V168.749H640.402V156.123Z" fill="#2392E6"/>
<path d="M443.416 167.406C445.979 167.406 448.057 165.347 448.057 162.807C448.057 160.267 445.979 158.208 443.416 158.208C440.853 158.208 438.775 160.267 438.775 162.807C438.775 165.347 440.853 167.406 443.416 167.406Z" fill="#E6E6E6"/>
<path d="M456.014 167.406C458.577 167.406 460.655 165.347 460.655 162.807C460.655 160.267 458.577 158.208 456.014 158.208C453.451 158.208 451.373 160.267 451.373 162.807C451.373 165.347 453.451 167.406 456.014 167.406Z" fill="#E6E6E6"/>
<path d="M468.612 167.406C471.175 167.406 473.254 165.347 473.254 162.807C473.254 160.267 471.175 158.208 468.612 158.208C466.049 158.208 463.971 160.267 463.971 162.807C463.971 165.347 466.049 167.406 468.612 167.406Z" fill="#E6E6E6"/>
<path d="M539.213 468.809C542.111 468.809 544.46 466.481 544.46 463.61C544.46 460.739 542.111 458.411 539.213 458.411C536.316 458.411 533.967 460.739 533.967 463.61C533.967 466.481 536.316 468.809 539.213 468.809Z" fill="white"/>
<path d="M554.204 468.809C557.102 468.809 559.451 466.481 559.451 463.61C559.451 460.739 557.102 458.411 554.204 458.411C551.307 458.411 548.958 460.739 548.958 463.61C548.958 466.481 551.307 468.809 554.204 468.809Z" fill="white"/>
<path d="M569.195 468.809C572.093 468.809 574.442 466.481 574.442 463.61C574.442 460.739 572.093 458.411 569.195 458.411C566.298 458.411 563.948 460.739 563.948 463.61C563.948 466.481 566.298 468.809 569.195 468.809Z" fill="white"/>
</g>
<defs>
<linearGradient id="paint0_linear" x1="778.5" y1="1" x2="778.5" y2="751.137" gradientUnits="userSpaceOnUse">
<stop stop-color="#3F3D56"/>
<stop offset="1" stop-color="#0183FC"/>
</linearGradient>
<clipPath id="clip0">
<rect x="97" y="156" width="793" height="507" fill="white"/>
</clipPath>
</defs>
</svg>
