<svg width="1906" height="706" viewBox="0 0 1906 706" fill="none" xmlns="http://www.w3.org/2000/svg">
<path d="M926.113 500.881C382.895 931.709 1 546.679 1 546.679V1H1905V546.679C1511.65 546.679 1469.33 70.0537 926.113 500.881Z" fill="url(#paint0_linear)" stroke="black"/>
<g clip-path="url(#clip0)">
<path d="M442.704 415.884C443.374 417.429 444.083 418.99 444.811 420.525L443.251 421.25C442.515 419.698 441.798 418.119 441.12 416.557L442.704 415.884Z" fill="#E6E6E6"/>
<path d="M720.93 292.288C721.914 294.363 722.859 296.478 723.74 298.573L722.148 299.228C720.83 296.09 719.372 292.928 717.834 289.869L719.378 289.11C719.905 290.16 720.423 291.219 720.93 292.288ZM714.38 279.959L712.893 280.821C711.147 277.869 709.279 274.945 707.341 272.129L708.765 271.169C710.724 274.017 712.614 276.974 714.38 279.959ZM727.446 308.304C728.566 311.581 729.584 314.932 730.471 318.264L728.804 318.698C727.927 315.404 726.921 312.091 725.813 308.851L727.446 308.304ZM702.553 262.78L701.198 263.835C699.065 261.152 696.809 258.509 694.494 255.978L695.771 254.833C698.113 257.393 700.395 260.067 702.553 262.78ZM732.796 328.407C733.45 331.797 733.993 335.256 734.409 338.685L732.699 338.889C732.286 335.497 731.75 332.078 731.103 328.726L732.796 328.407ZM688.45 247.37L687.256 248.599C684.77 246.234 682.17 243.925 679.53 241.738L680.637 240.431C683.307 242.643 685.935 244.977 688.45 247.37ZM735.304 349.065C735.479 352.522 735.536 356.025 735.47 359.477L733.747 359.445C733.811 356.032 733.756 352.568 733.582 349.15L735.304 349.065ZM672.358 234.038L671.345 235.417C668.553 233.412 665.657 231.476 662.737 229.666L663.652 228.22C666.605 230.051 669.534 232.009 672.358 234.038ZM734.913 369.873C734.608 373.319 734.179 376.795 733.637 380.204L731.934 379.939C732.47 376.568 732.895 373.131 733.197 369.723L734.913 369.873ZM654.563 223.005L653.75 224.509C650.708 222.898 647.571 221.37 644.427 219.969L645.134 218.414C648.315 219.831 651.487 221.376 654.563 223.005ZM731.649 390.423C730.873 393.789 729.969 397.173 728.963 400.482L727.313 399.99C728.308 396.718 729.201 393.372 729.969 390.044L731.649 390.423ZM635.408 214.469L634.809 216.068C631.573 214.881 628.255 213.789 624.945 212.823L625.433 211.187C628.78 212.165 632.136 213.269 635.408 214.469ZM725.59 410.335C724.358 413.568 722.997 416.798 721.548 419.937L719.981 419.228C721.415 416.124 722.759 412.93 723.977 409.734L725.59 410.335ZM615.251 208.586L614.876 210.25C611.511 209.51 608.072 208.875 604.656 208.362L604.914 206.677C608.369 207.194 611.847 207.837 615.251 208.586ZM716.856 429.241C715.192 432.277 713.401 435.293 711.533 438.205L710.078 437.292C711.924 434.412 713.695 431.43 715.341 428.428L716.856 429.241ZM594.465 205.473L594.325 207.172C590.881 206.893 587.386 206.729 583.933 206.685L583.956 204.98C587.447 205.024 590.983 205.19 594.465 205.473ZM705.606 446.787C703.54 449.567 701.351 452.311 699.098 454.943L697.784 453.841C700.01 451.239 702.175 448.526 704.218 445.777L705.606 446.787ZM573.435 205.204L573.532 206.907C570.082 207.099 566.595 207.412 563.166 207.839L562.951 206.147C566.419 205.715 569.946 205.398 573.435 205.204ZM692.043 462.634C689.609 465.111 687.057 467.534 684.458 469.836L683.309 468.566C685.878 466.289 688.401 463.894 690.808 461.446L692.043 462.634ZM552.573 207.803L552.905 209.477C549.519 210.137 546.114 210.922 542.784 211.81L542.336 210.163C545.703 209.265 549.147 208.472 552.573 207.803ZM676.389 476.501C673.635 478.621 670.771 480.673 667.876 482.601L666.914 481.186C669.776 479.28 672.608 477.251 675.33 475.155L676.389 476.501ZM532.289 213.213L532.85 214.825C529.593 215.936 526.328 217.174 523.146 218.505L522.475 216.934C525.692 215.588 528.994 214.336 532.289 213.213H532.289ZM658.96 488.107C655.943 489.831 652.822 491.478 649.686 493.001L648.927 491.47C652.029 489.964 655.114 488.336 658.097 486.631L658.96 488.107ZM513.714 222.828C510.629 224.367 507.562 226.029 504.598 227.767L503.72 226.301C506.717 224.542 509.819 222.862 512.938 221.305L513.714 222.828ZM495.845 233.31C493 235.252 490.192 237.312 487.497 239.435L486.424 238.102C489.149 235.954 491.989 233.87 494.866 231.906L495.845 233.31ZM479.597 246.116C477.055 248.42 474.562 250.841 472.188 253.311L470.939 252.136C473.341 249.638 475.862 247.189 478.433 244.859L479.597 246.116ZM465.297 260.997C463.097 263.629 460.963 266.367 458.955 269.136L457.555 268.142C459.586 265.341 461.744 262.572 463.97 259.91L465.297 260.997ZM453.19 277.688C451.372 280.595 449.636 283.598 448.028 286.611L446.505 285.816C448.13 282.768 449.886 279.731 451.724 276.791L453.19 277.688ZM443.493 295.865C442.094 298.985 440.786 302.194 439.604 305.403L437.985 304.819C439.18 301.574 440.503 298.329 441.918 295.173L443.493 295.865ZM436.381 315.182C435.423 318.468 434.567 321.824 433.838 325.158L432.154 324.798C432.891 321.426 433.756 318.031 434.725 314.71L436.381 315.182ZM431.987 335.283C431.49 338.668 431.105 342.11 430.843 345.511L429.125 345.382C429.39 341.942 429.779 338.462 430.282 335.037L431.987 335.283ZM430.411 355.796C430.386 359.215 430.481 362.677 430.695 366.086L428.975 366.191C428.759 362.744 428.663 359.242 428.687 355.783L430.411 355.796ZM431.696 376.334C432.147 379.719 432.723 383.131 433.408 386.477L431.719 386.817C431.026 383.432 430.443 379.98 429.987 376.557L431.696 376.334ZM435.824 396.48C436.74 399.769 437.784 403.071 438.928 406.295L437.301 406.859C436.145 403.598 435.089 400.259 434.162 396.934L435.824 396.48Z" fill="#E6E6E6"/>
<path d="M639.211 495.782L639.862 497.361C638.25 498.01 636.62 498.637 635.015 499.222L634.419 497.622C636.006 497.043 637.618 496.424 639.211 495.782Z" fill="#E6E6E6"/>
<path d="M343.343 196.274C334.644 181.729 317.433 181.051 317.433 181.051C317.433 181.051 300.662 178.929 289.904 201.081C279.877 221.729 266.037 241.665 287.676 246.499L291.585 234.46L294.005 247.395C297.086 247.614 300.177 247.666 303.264 247.551C326.437 246.811 348.507 247.768 347.796 239.539C346.851 228.6 351.713 210.269 343.343 196.274Z" fill="#2F2E41"/>
<path d="M273.783 515.02V538.011L261.792 536.528V517.245L273.783 515.02Z" fill="#FFB8B8"/>
<path d="M356.975 529.853L361.472 547.652L371.965 543.944L364.47 526.887L356.975 529.853Z" fill="#FFB8B8"/>
<path d="M276.032 268.797L277.531 309.587L287.274 312.553L290.272 273.246L276.032 268.797Z" fill="#FFB8B8"/>
<path d="M279.029 306.62L277.53 309.587L264.04 322.195C264.04 322.195 254.297 330.353 258.044 335.544L267.787 331.094V328.128L290.272 312.553L279.029 306.62Z" fill="#FFB8B8"/>
<path d="M333.741 318.486V335.544L276.032 326.644L282.777 314.036L333.741 318.486Z" fill="#FFB8B8"/>
<path d="M359.973 265.089C359.973 265.089 365.219 279.18 365.969 280.663C366.718 282.146 375.712 316.262 375.712 316.262L398.196 351.86C398.196 351.86 414.685 371.143 404.192 371.885C393.699 372.626 386.205 355.568 386.205 355.568L363.72 326.645L342.735 271.763L359.973 265.089Z" fill="#FFB8B8"/>
<path d="M316.878 233.569C328.882 233.569 338.613 223.94 338.613 212.061C338.613 200.183 328.882 190.554 316.878 190.554C304.874 190.554 295.143 200.183 295.143 212.061C295.143 223.94 304.874 233.569 316.878 233.569Z" fill="#FFB8B8"/>
<path d="M310.507 226.523C310.507 226.523 310.507 242.098 302.263 244.323C294.019 246.548 309.008 262.864 309.008 262.864L338.987 248.031C338.987 248.031 326.246 243.581 329.994 226.523H310.507Z" fill="#FFB8B8"/>
<path d="M305.636 242.469L289.741 247.66C285.427 249.382 281.681 252.255 278.917 255.957C276.154 259.66 274.482 264.048 274.087 268.635C273.808 271.463 274.217 274.316 275.282 276.955C279.779 287.338 285.025 289.563 285.025 289.563C285.025 289.563 285.775 294.013 285.025 294.754C284.276 295.496 282.777 296.238 283.526 298.462C284.276 300.687 285.025 299.946 284.276 302.171C283.526 304.396 280.528 309.587 280.528 309.587C280.528 309.587 283.526 311.07 281.278 312.554C279.029 314.037 278.28 317.003 278.28 317.003C278.28 317.003 329.244 319.228 334.491 324.42L343.484 288.08C343.484 288.08 364.47 279.921 363.72 271.763C362.971 263.605 358.474 256.189 353.227 253.964C347.981 251.739 335.25 245.8 335.25 245.8C335.25 245.8 333.572 251.315 318.227 249.987C315.688 249.764 313.235 248.971 311.053 247.668C308.871 246.365 307.018 244.587 305.636 242.469V242.469Z" fill="#3F3D56"/>
<path d="M335.24 330.353C335.24 330.353 285.775 327.386 278.28 317.003L257.295 337.028L259.543 349.635L258.794 514.279C258.794 514.279 258.044 522.437 260.292 522.437C262.541 522.437 274.533 523.92 275.282 522.437C276.031 520.954 273.034 517.987 278.28 516.504C283.526 515.021 283.526 520.212 283.526 515.021C283.526 509.829 282.777 487.58 281.278 483.872C279.779 480.164 298.516 394.875 298.516 394.875C298.516 394.875 347.981 526.887 351.729 529.853C355.476 532.82 356.225 537.27 358.474 536.528C360.722 535.787 371.215 532.82 371.965 532.078C372.714 531.337 371.215 525.404 371.965 523.179C372.714 520.954 374.962 523.92 371.965 519.47C368.967 515.021 368.217 512.054 368.217 509.829C368.217 507.604 340.486 364.468 340.486 364.468C340.486 364.468 346.482 351.119 337.489 343.702L335.24 330.353Z" fill="#2F2E41"/>
<path d="M275.282 532.078C275.282 532.078 267.787 524.662 264.789 524.662H257.294C257.294 524.662 250.549 538.753 248.301 539.495C246.052 540.236 231.063 558.036 244.553 558.036C258.044 558.036 263.29 553.586 263.29 553.586L275.282 547.653V532.078Z" fill="#2F2E41"/>
<path d="M360.229 542.734L358.474 558.036C358.474 558.036 373.463 563.969 373.463 564.71C373.463 565.452 397.447 576.577 398.946 566.935C400.445 557.294 386.954 549.136 386.954 549.136C386.954 549.136 372.572 532.287 370.02 532.924C367.468 533.562 367.468 538.011 367.468 538.011L360.229 542.734Z" fill="#2F2E41"/>
<path d="M514.74 461.008H304.887V368.487L409.813 415.158L514.74 368.487V461.008Z" fill="#3F3D56"/>
<path d="M304.887 368.487H514.74L410.021 421.943L304.887 368.487Z" fill="#2392E6"/>
<path d="M410.021 430.578C414.841 430.578 418.748 426.712 418.748 421.943C418.748 417.174 414.841 413.308 410.021 413.308C405.201 413.308 401.294 417.174 401.294 421.943C401.294 426.712 405.201 430.578 410.021 430.578Z" fill="#E6E6E6"/>
<path d="M319.539 193.439C326.412 193.439 331.984 187.926 331.984 181.125C331.984 174.324 326.412 168.811 319.539 168.811C312.667 168.811 307.095 174.324 307.095 181.125C307.095 187.926 312.667 193.439 319.539 193.439Z" fill="#2F2E41"/>
<path d="M305.785 177.884C305.786 174.843 306.923 171.909 308.979 169.649C311.035 167.388 313.863 165.96 316.92 165.64C315.184 165.457 313.429 165.637 311.769 166.169C310.108 166.701 308.579 167.573 307.282 168.728C305.984 169.882 304.946 171.294 304.235 172.872C303.525 174.449 303.158 176.157 303.158 177.884C303.158 179.611 303.525 181.319 304.235 182.897C304.946 184.474 305.984 185.886 307.282 187.041C308.579 188.196 310.108 189.067 311.769 189.599C313.429 190.131 315.184 190.312 316.92 190.129C313.863 189.809 311.035 188.381 308.979 186.12C306.923 183.859 305.786 180.926 305.785 177.884V177.884Z" fill="#2F2E41"/>
<path d="M339.497 194.872L322.493 186.059L299.013 189.664L294.155 210.896L306.248 210.436L309.626 202.636V210.307L315.207 210.095L318.445 197.676L320.47 210.896L340.306 210.496L339.497 194.872Z" fill="#2F2E41"/>
<path d="M959.929 436.036H597.932V610.321H959.929V436.036Z" fill="#3F3D56"/>
<path d="M959.929 436.036H597.932V458.285H959.929V436.036Z" fill="#2392E6"/>
<path d="M650.395 555.44C668.608 555.44 683.372 540.83 683.372 522.808C683.372 504.786 668.608 490.176 650.395 490.176C632.183 490.176 617.418 504.786 617.418 522.808C617.418 540.83 632.183 555.44 650.395 555.44Z" fill="#E6E6E6"/>
<path d="M917.209 504.638H737.334V509.829H917.209V504.638Z" fill="#E6E6E6"/>
<path d="M917.209 520.212H737.334V525.404H917.209V520.212Z" fill="#E6E6E6"/>
<path d="M846.009 535.786H737.334V540.978H846.009V535.786Z" fill="#E6E6E6"/>
<path d="M833.291 281.353C833.291 281.353 828.395 297.271 831.193 302.115C833.991 306.96 826.297 317.341 813.708 312.496C801.12 307.652 800.42 302.115 800.42 302.115C800.42 302.115 805.316 294.502 806.715 278.585L833.291 281.353Z" fill="#A0616A"/>
<path d="M897.285 437.414C897.285 437.414 922.463 449.872 911.273 466.481C904.768 476.136 892.356 494.91 883.102 508.939C875.357 520.681 869.417 533.495 865.477 546.964L863.714 552.99L856.721 561.295L842.033 544.685C842.033 544.685 863.714 505.237 863.714 497.624C863.714 490.012 881.199 465.789 881.199 465.789L863.714 454.716C863.714 454.716 883.297 432.57 897.285 437.414Z" fill="#A0616A"/>
<path d="M815.457 480.323C815.457 480.323 814.758 499.701 814.058 507.313C813.481 513.594 819.093 531.179 817.147 550.743C815.96 563.4 816.102 576.145 817.571 588.773L820.353 613.892L799.371 615.968L792.377 559.219C792.377 559.219 788.181 519.079 790.279 505.929L789.58 478.246C789.58 478.246 804.966 472.71 815.457 480.323Z" fill="#A0616A"/>
<path d="M852.874 399.697C852.874 399.697 901.831 430.84 902.53 440.529C902.53 440.529 874.555 437.76 873.856 461.983C873.856 461.983 857.07 455.754 852.874 454.37C848.678 452.986 826.297 438.452 826.297 438.452C826.297 438.452 817.205 445.373 817.205 456.446C817.205 467.519 817.905 486.897 817.205 488.281C816.506 489.666 800.42 469.596 787.132 486.897L778.04 439.145C778.04 439.145 775.242 410.078 780.838 408.001L820.003 393.468L852.874 399.697Z" fill="#2F2E41"/>
<path d="M823.15 290.004C834.738 290.004 844.132 280.708 844.132 269.242C844.132 257.775 834.738 248.48 823.15 248.48C811.562 248.48 802.169 257.775 802.169 269.242C802.169 280.708 811.562 290.004 823.15 290.004Z" fill="#A0616A"/>
<path d="M828.396 305.575C828.396 305.575 804.729 311.76 801.526 300.017C801.526 300.017 772.445 305.575 767.549 324.261C762.653 342.947 779.439 387.932 779.439 389.316C779.439 390.7 765.451 399.005 771.745 403.157C778.04 407.309 783.635 402.465 780.837 408.001C778.04 413.538 773.144 414.922 777.34 416.306C781.537 417.69 806.715 396.236 826.297 401.773C845.88 407.309 855.671 403.157 855.671 403.157L864.452 328.059C864.795 325.182 864.404 322.266 863.316 319.577C862.227 316.888 860.475 314.511 858.22 312.664C853.837 309.094 848.021 305.237 842.383 304.191C831.193 302.115 830.728 300.978 830.728 300.978L828.396 305.575Z" fill="#D0CDE1"/>
<path d="M850.776 426.687C850.776 426.687 844.481 461.983 836.089 457.138C827.696 452.294 838.187 426.687 838.187 426.687L850.776 426.687Z" fill="#A0616A"/>
<path d="M821.559 431.255C821.559 431.255 832.466 465.432 822.76 464.975C813.055 464.519 810.396 437.013 810.396 437.013L821.559 431.255Z" fill="#A0616A"/>
<path d="M860.217 551.606C860.217 551.606 865.113 546.069 867.911 553.682C870.708 561.295 878.401 570.984 878.401 570.984C878.401 570.984 895.187 589.67 883.297 590.362C871.408 591.054 854.622 573.752 854.622 573.752L835.04 555.758C835.04 555.758 841.53 540.117 844.579 539.979C847.628 539.841 846.929 558.526 860.217 551.606Z" fill="#2F2E41"/>
<path d="M814.758 609.048C814.758 609.048 819.686 610.471 819.32 604.569C819.32 604.569 837.138 613.892 832.242 620.813C832.193 620.882 832.144 620.951 832.095 621.02C825.2 630.733 815.761 638.405 804.793 643.209C799.414 645.566 794.629 647.134 793.776 645.727C791.678 642.267 791.678 635.346 793.077 632.578C794.475 629.81 801.469 624.965 799.371 620.813C797.273 616.66 800.071 605.587 803.567 605.587C807.064 605.587 814.758 609.048 814.758 609.048Z" fill="#2F2E41"/>
<path d="M841.461 251.649C841.461 251.649 834.711 237.178 821.774 240.518C808.838 243.857 801.526 248.866 800.963 253.875C800.401 258.885 801.244 266.398 801.244 266.398C801.244 266.398 802.651 256.102 811.65 258.328C820.649 260.554 834.711 258.885 834.711 258.885L836.961 278.921C836.961 278.921 839.492 275.304 842.304 277.53C845.117 279.756 850.46 256.102 841.461 251.649Z" fill="#2F2E41"/>
<path d="M779.439 323.569C779.439 323.569 796.224 368.554 794.825 374.09C793.426 379.627 794.825 380.319 796.923 381.703C799.022 383.087 804.617 397.62 804.617 397.62C804.617 397.62 808.114 405.925 810.911 408.002C813.709 410.078 813.709 415.614 813.709 415.614C813.709 415.614 820.702 422.535 819.304 423.919C817.905 425.303 817.905 427.379 820.702 429.456C823.5 431.532 826.298 434.3 824.899 434.992C823.5 435.684 813.709 443.297 810.911 442.605C808.114 441.913 812.31 439.145 808.813 437.76C805.316 436.376 803.218 434.3 804.617 433.608C806.015 432.916 810.212 432.916 806.015 431.532C801.819 430.148 787.132 421.151 782.236 410.078C777.341 399.005 753.884 332.01 768.06 322.599C768.06 322.599 773.844 315.264 779.439 323.569Z" fill="#D0CDE1"/>
<path d="M857.07 315.956L857.354 316.074C859.996 317.164 862.33 318.875 864.153 321.058C865.976 323.242 867.234 325.832 867.817 328.605C869.345 335.838 870.847 346.3 869.659 356.096C867.561 373.398 866.162 381.011 863.365 386.547C860.567 392.084 859.868 390.008 860.567 394.16C861.267 398.313 864.764 394.852 861.267 400.389C857.77 405.925 855.672 404.541 857.07 407.31C858.469 410.078 860.567 410.078 857.77 413.538C854.972 416.998 854.972 418.383 854.273 419.767C853.573 421.151 851.475 431.532 851.475 431.532C851.475 431.532 840.285 428.072 833.991 429.456C833.991 429.456 839.586 419.767 838.187 417.691C836.788 415.614 834.69 414.922 836.788 412.846C838.886 410.77 842.383 411.462 838.886 409.386C835.39 407.31 841.684 385.855 841.684 385.855L857.07 315.956Z" fill="#D0CDE1"/>
<path d="M668.383 539.328C668.383 552.771 660.306 557.466 650.343 557.466C650.111 557.466 649.881 557.464 649.651 557.457C649.19 557.447 648.732 557.428 648.281 557.395C639.289 556.766 632.303 551.83 632.303 539.328C632.303 526.39 649.008 510.064 650.268 508.852L650.271 508.851C650.318 508.804 650.343 508.78 650.343 508.78C650.343 508.78 668.383 525.883 668.383 539.328Z" fill="#3F3D56"/>
<path d="M649.685 555.409L656.284 546.286L649.669 556.41L649.651 557.457C649.19 557.447 648.732 557.428 648.281 557.395L648.992 543.945L648.987 543.841L648.999 543.821L649.066 542.551L642.435 532.401L649.086 541.598L649.102 541.867L649.64 531.705L643.963 521.218L649.709 529.92L650.268 508.852L650.271 508.78V508.851L650.178 525.464L655.829 518.878L650.154 526.895L650.005 535.994L655.282 527.262L649.982 537.334L649.9 542.392L657.56 530.237L649.871 544.157L649.685 555.409Z" fill="#F2F2F2"/>
<path d="M203.022 503.982C202.884 503.759 199.627 498.377 198.497 487.201C197.462 476.949 198.128 459.667 207.185 435.56C224.344 389.891 203.231 353.043 203.015 352.676L204.057 352.078C204.111 352.171 209.559 361.566 212.778 376.526C217.03 396.359 215.482 416.981 208.314 435.975C191.184 481.566 203.919 503.148 204.05 503.361L203.022 503.982Z" fill="#3F3D56"/>
<path d="M196.312 349.994C200.634 349.994 204.138 346.528 204.138 342.251C204.138 337.975 200.634 334.508 196.312 334.508C191.991 334.508 188.487 337.975 188.487 342.251C188.487 346.528 191.991 349.994 196.312 349.994Z" fill="#2392E6"/>
<path d="M220.992 378.586C225.314 378.586 228.817 375.119 228.817 370.842C228.817 366.566 225.314 363.099 220.992 363.099C216.67 363.099 213.167 366.566 213.167 370.842C213.167 375.119 216.67 378.586 220.992 378.586Z" fill="#3F3D56"/>
<path d="M204.138 397.646C208.46 397.646 211.963 394.179 211.963 389.903C211.963 385.626 208.46 382.159 204.138 382.159C199.816 382.159 196.312 385.626 196.312 389.903C196.312 394.179 199.816 397.646 204.138 397.646Z" fill="#2392E6"/>
<path d="M224.604 413.729C228.926 413.729 232.429 410.262 232.429 405.985C232.429 401.709 228.926 398.242 224.604 398.242C220.282 398.242 216.779 401.709 216.779 405.985C216.779 410.262 220.282 413.729 224.604 413.729Z" fill="#2392E6"/>
<path d="M198.118 438.746C202.44 438.746 205.944 435.279 205.944 431.002C205.944 426.726 202.44 423.259 198.118 423.259C193.797 423.259 190.293 426.726 190.293 431.002C190.293 435.279 193.797 438.746 198.118 438.746Z" fill="#3F3D56"/>
<path d="M207.749 504.267C207.749 504.267 199.924 485.206 223.4 470.911L207.749 504.267Z" fill="#3F3D56"/>
<path d="M198.126 503.921C198.126 503.921 194.564 483.652 167 483.825L198.126 503.921Z" fill="#3F3D56"/>
<path d="M710.353 140H504.997V253.173H710.353V140Z" fill="#3F3D56"/>
<path d="M672.13 183.311H542.725V187.064H672.13V183.311Z" fill="white"/>
<path d="M672.13 198.324H542.725V202.078H672.13V198.324Z" fill="white"/>
<path d="M672.13 213.338H542.725V217.092H672.13V213.338Z" fill="white"/>
<path d="M710.353 140.123H504.997V152.73H710.353V140.123Z" fill="#2392E6"/>
<path d="M513.385 151.39C515.948 151.39 518.026 149.334 518.026 146.797C518.026 144.261 515.948 142.205 513.385 142.205C510.822 142.205 508.744 144.261 508.744 146.797C508.744 149.334 510.822 151.39 513.385 151.39Z" fill="#E6E6E6"/>
<path d="M525.982 151.39C528.545 151.39 530.623 149.334 530.623 146.797C530.623 144.261 528.545 142.205 525.982 142.205C523.419 142.205 521.341 144.261 521.341 146.797C521.341 149.334 523.419 151.39 525.982 151.39Z" fill="#E6E6E6"/>
<path d="M538.579 151.39C541.142 151.39 543.22 149.334 543.22 146.797C543.22 144.261 541.142 142.205 538.579 142.205C536.016 142.205 533.938 144.261 533.938 146.797C533.938 149.334 536.016 151.39 538.579 151.39Z" fill="#E6E6E6"/>
<path d="M609.174 452.352C612.072 452.352 614.42 450.028 614.42 447.161C614.42 444.294 612.072 441.969 609.174 441.969C606.277 441.969 603.928 444.294 603.928 447.161C603.928 450.028 606.277 452.352 609.174 452.352Z" fill="white"/>
<path d="M624.164 452.352C627.061 452.352 629.41 450.028 629.41 447.161C629.41 444.294 627.061 441.969 624.164 441.969C621.266 441.969 618.917 444.294 618.917 447.161C618.917 450.028 621.266 452.352 624.164 452.352Z" fill="white"/>
<path d="M639.153 452.352C642.051 452.352 644.399 450.028 644.399 447.161C644.399 444.294 642.051 441.969 639.153 441.969C636.256 441.969 633.907 444.294 633.907 447.161C633.907 450.028 636.256 452.352 639.153 452.352Z" fill="white"/>
</g>
<defs>
<linearGradient id="paint0_linear" x1="953" y1="1" x2="953" y2="682.414" gradientUnits="userSpaceOnUse">
<stop stop-color="#3F3D56"/>
<stop offset="1" stop-color="#0183FC"/>
</linearGradient>
<clipPath id="clip0">
<rect x="167" y="140" width="792.929" height="506.26" fill="white"/>
</clipPath>
</defs>
</svg>
