<svg width="1966" height="1192" viewBox="0 0 1966 1192" fill="none" xmlns="http://www.w3.org/2000/svg">
<g style="mix-blend-mode:multiply" filter="url(#filter0_bf)">
<path d="M1958.8 12.0593C1958.77 15.7849 3.9406 -3.84998 4.01633 16.0197C84.5034 189.946 268.796 164.636 315.786 197.705C379.825 223.633 423.548 228.422 458.953 327.702C527.445 446.005 700.254 372.564 757.892 492.915C815.531 613.266 973.645 656.068 1108.02 655.796C1242.39 655.523 1400.67 877.218 1515.79 851.584C1630.92 825.951 1875.11 1242.9 1961.16 1176.47L1958.8 12.0593Z" fill="url(#paint0_linear)"/>
</g>
<g clip-path="url(#clip0)">
<path d="M1355.79 532.136C1370.17 547.563 1370.91 570.236 1370.91 570.236C1370.91 570.236 1348.35 567.898 1333.97 552.472C1319.59 537.046 1318.85 514.372 1318.85 514.372C1318.85 514.372 1341.42 516.71 1355.79 532.136Z" fill="#6C63FF"/>
<path d="M1401.05 556.215C1385.62 570.591 1362.95 571.334 1362.95 571.334C1362.95 571.334 1365.29 548.769 1380.71 534.393C1396.14 520.017 1418.81 519.274 1418.81 519.274C1418.81 519.274 1416.48 541.839 1401.05 556.215Z" fill="#6C63FF"/>
<path d="M1397.21 602H1340.48C1339.39 602 1338.32 601.694 1337.4 601.117C1336.48 600.539 1335.73 599.714 1335.26 598.735L1322.9 573.342C1322.47 572.457 1322.27 571.478 1322.33 570.495C1322.38 569.513 1322.68 568.56 1323.2 567.726C1323.72 566.891 1324.45 566.204 1325.31 565.727C1326.17 565.25 1327.14 565 1328.12 565H1409.57C1410.55 565 1411.52 565.25 1412.38 565.727C1413.24 566.204 1413.97 566.891 1414.49 567.726C1415.01 568.56 1415.31 569.513 1415.36 570.495C1415.42 571.478 1415.22 572.457 1414.79 573.342L1402.43 598.735C1401.96 599.714 1401.22 600.539 1400.29 601.117C1399.37 601.694 1398.3 602 1397.21 602Z" fill="#3F3D56"/>
<path d="M1652.03 292.313C1678.12 292.313 1699.27 271.162 1699.27 245.07C1699.27 218.978 1678.12 197.826 1652.03 197.826C1625.94 197.826 1604.78 218.978 1604.78 245.07C1604.78 271.162 1625.94 292.313 1652.03 292.313Z" fill="#FFB8B8"/>
<path d="M1616.77 268.692C1616.77 268.692 1625.67 335.791 1611.97 343.323C1598.28 350.854 1693.45 351.539 1693.45 351.539C1693.45 351.539 1672.23 293.34 1681.81 275.538L1616.77 268.692Z" fill="#FFB8B8"/>
<path d="M1762.95 351.878L1755.03 387.92L1738.3 464.173L1737.79 468.349L1732.02 516.693L1728.18 548.81L1725.6 570.383C1709.94 578.433 1698.59 583.99 1698.59 583.99C1698.59 583.99 1697.61 579.095 1696.03 572.831C1685.04 576.127 1664.7 581.594 1647.47 582.686C1653.74 589.682 1656.63 596.255 1652.71 601.105C1640.91 615.728 1592.16 585.095 1575.11 573.673C1574.71 576.408 1574.56 579.173 1574.66 581.934L1561.61 571.899L1562.9 548.81L1565.08 509.742L1567.81 460.748C1566.95 458.651 1566.23 456.498 1565.65 454.305C1561.65 440.094 1556.8 411.716 1553.08 387.92C1550.09 368.768 1547.84 352.585 1547.36 349.141C1547.3 348.692 1547.27 348.46 1547.27 348.46L1619.5 316.543C1624.63 328.448 1648.6 332.026 1648.6 332.026C1668.46 330.658 1684.03 320.186 1684.03 320.186L1762.95 351.878Z" fill="#D0CDE1"/>
<path d="M1704.07 570.3C1704.07 570.3 1701.01 571.347 1696.03 572.831C1685.04 576.127 1664.7 581.594 1647.47 582.686C1632.62 583.637 1620.08 581.35 1617.79 571.668C1616.81 567.505 1618.2 564.081 1621.24 561.267C1630.31 552.857 1654.01 549.844 1672.8 548.81C1678.1 548.52 1683.01 548.386 1687.1 548.334C1694.04 548.244 1698.59 548.386 1698.59 548.386L1698.69 548.81L1704.07 570.3Z" fill="#FFB8B8"/>
<path d="M1612.73 200.382L1603.89 196.845C1603.89 196.845 1622.36 176.511 1648.06 178.279L1640.83 170.323C1640.83 170.323 1658.5 163.25 1674.56 181.816C1683 191.575 1692.77 203.047 1698.86 215.971H1708.32L1704.37 224.664L1718.19 233.358L1704.01 231.796C1704.85 236.557 1704.98 241.417 1704.39 246.216C1703.78 251.016 1701.33 255.393 1697.56 258.421C1697.56 258.421 1686.6 235.745 1686.6 232.209V241.05C1686.6 241.05 1677.77 233.093 1677.77 227.789L1672.95 233.977L1670.54 224.252L1640.83 233.977L1645.65 226.021L1627.18 228.673L1634.41 218.948C1634.41 218.948 1613.53 230.441 1612.73 240.166C1611.92 249.891 1605.81 259.106 1605.81 259.106C1605.81 259.106 1589.44 213.643 1612.73 200.382Z" fill="#2F2E41"/>
<path d="M1814.3 517.573C1809.49 522.79 1797.56 530.647 1783.11 539.154C1777.73 542.314 1772 545.572 1766.16 548.81C1752.23 556.538 1737.64 564.196 1725.6 570.383C1709.94 578.433 1698.59 583.99 1698.59 583.99C1698.59 583.99 1697.61 579.095 1696.03 572.831C1693.93 564.447 1690.75 553.609 1687.44 548.81C1687.33 548.643 1687.21 548.488 1687.1 548.334C1686.13 547.069 1685.16 546.33 1684.21 546.33L1732.02 516.693L1752.68 503.883L1737.79 468.349L1719.12 423.775L1730.39 387.92L1741.72 351.878H1762.95C1762.95 351.878 1769.97 367.22 1778.96 388.614C1780.31 391.813 1781.69 395.148 1783.11 398.591C1801.6 443.563 1824.65 506.363 1814.3 517.573Z" fill="#D0CDE1"/>
<path d="M1652.71 601.105C1640.91 615.727 1592.16 585.095 1575.11 573.673C1571.39 571.186 1569.18 569.612 1569.18 569.612L1584.78 548.81L1589.72 542.224C1589.72 542.224 1594.14 544.569 1600.68 548.386C1600.91 548.527 1601.15 548.668 1601.39 548.81C1607.03 552.118 1614.1 556.442 1621.24 561.267C1631.09 567.929 1641.05 575.529 1647.47 582.686C1653.74 589.682 1656.63 596.255 1652.71 601.105Z" fill="#FFB8B8"/>
<path d="M1600.68 548.386C1598.93 548.379 1597.19 548.521 1595.47 548.81C1580.7 551.347 1576.35 564.717 1575.11 573.673C1574.71 576.408 1574.56 579.173 1574.66 581.935L1561.61 571.899L1556.85 568.244C1545.41 564.254 1535.22 557.168 1526.38 548.81C1518.71 541.43 1511.83 533.272 1505.85 524.467C1499.89 515.789 1494.59 506.684 1489.97 497.227C1488.68 494.588 1487.99 491.698 1487.94 488.761C1487.89 485.825 1488.49 482.914 1489.69 480.234L1505.85 444.225L1529.47 391.595C1529.64 390.342 1529.83 389.117 1530.04 387.92C1534.72 361.065 1547.27 349.141 1547.27 349.141H1556.85L1563.27 387.92L1571.23 436.098L1565.65 454.305L1552.75 496.353L1565.08 509.742L1600.68 548.386Z" fill="#D0CDE1"/>
<path d="M1611.52 436.136L1619.72 445.696C1622.76 445.116 1625.94 444.434 1629.22 443.668L1626.86 436.136L1632.62 442.85C1667.31 434.318 1710.31 417.729 1710.31 417.729C1710.31 417.729 1663.89 421.133 1629.22 413.56C1613.89 410.21 1598.11 417.812 1591.82 432.193C1588.16 440.552 1588.73 447.794 1601.71 447.794C1606.09 447.719 1610.46 447.308 1614.78 446.564L1611.52 436.136Z" fill="#6C63FF"/>
<path d="M1798.33 593.267V597.167C1798.33 598.237 1798.14 599.299 1797.75 600.296C1797.58 600.74 1797.37 601.17 1797.12 601.581C1796.36 602.866 1795.27 603.93 1793.97 604.669C1792.67 605.408 1791.2 605.796 1789.7 605.795H1502.82C1501.32 605.796 1499.85 605.408 1498.55 604.669C1497.25 603.93 1496.16 602.866 1495.4 601.581C1495.15 601.17 1494.95 600.74 1494.77 600.296C1494.38 599.299 1494.19 598.237 1494.19 597.167V593.267C1494.19 592.134 1494.41 591.012 1494.84 589.965C1495.28 588.918 1495.91 587.967 1496.71 587.166C1497.52 586.364 1498.47 585.729 1499.51 585.295C1500.56 584.862 1501.68 584.639 1502.82 584.639H1519.35V582.821C1519.35 582.774 1519.36 582.727 1519.38 582.683C1519.4 582.64 1519.43 582.6 1519.46 582.566C1519.49 582.533 1519.53 582.507 1519.58 582.489C1519.62 582.47 1519.67 582.461 1519.71 582.461H1528.34C1528.39 582.461 1528.44 582.47 1528.48 582.489C1528.52 582.507 1528.56 582.533 1528.6 582.566C1528.63 582.6 1528.66 582.64 1528.67 582.683C1528.69 582.727 1528.7 582.774 1528.7 582.821V584.639H1534.09V582.821C1534.09 582.774 1534.1 582.727 1534.12 582.683C1534.14 582.64 1534.16 582.6 1534.2 582.566C1534.23 582.533 1534.27 582.507 1534.31 582.489C1534.36 582.47 1534.4 582.461 1534.45 582.461H1543.08C1543.13 582.461 1543.17 582.47 1543.22 582.489C1543.26 582.507 1543.3 582.533 1543.33 582.566C1543.37 582.6 1543.39 582.64 1543.41 582.683C1543.43 582.727 1543.44 582.774 1543.44 582.821V584.639H1548.84V582.821C1548.84 582.774 1548.84 582.727 1548.86 582.683C1548.88 582.64 1548.91 582.6 1548.94 582.566C1548.97 582.533 1549.01 582.507 1549.06 582.489C1549.1 582.47 1549.15 582.461 1549.2 582.461H1557.82C1557.87 582.461 1557.92 582.47 1557.96 582.489C1558 582.507 1558.04 582.533 1558.08 582.566C1558.11 582.6 1558.14 582.64 1558.16 582.683C1558.17 582.727 1558.18 582.774 1558.18 582.821V584.639H1563.57V582.821C1563.57 582.774 1563.58 582.727 1563.6 582.683C1563.62 582.64 1563.65 582.6 1563.68 582.566C1563.71 582.533 1563.75 582.507 1563.8 582.489C1563.84 582.47 1563.89 582.461 1563.93 582.461H1572.56C1572.61 582.461 1572.66 582.47 1572.7 582.489C1572.74 582.507 1572.78 582.533 1572.82 582.566C1572.85 582.6 1572.88 582.64 1572.89 582.683C1572.91 582.727 1572.92 582.774 1572.92 582.821V584.639H1578.31V582.821C1578.31 582.774 1578.32 582.727 1578.34 582.683C1578.36 582.64 1578.38 582.6 1578.42 582.566C1578.45 582.533 1578.49 582.507 1578.53 582.489C1578.58 582.47 1578.62 582.461 1578.67 582.461H1587.3C1587.35 582.461 1587.39 582.47 1587.44 582.489C1587.48 582.507 1587.52 582.533 1587.55 582.566C1587.59 582.6 1587.61 582.64 1587.63 582.683C1587.65 582.727 1587.66 582.774 1587.66 582.821V584.639H1593.06V582.821C1593.06 582.774 1593.06 582.727 1593.08 582.683C1593.1 582.64 1593.13 582.6 1593.16 582.566C1593.19 582.533 1593.23 582.507 1593.28 582.489C1593.32 582.47 1593.37 582.461 1593.42 582.461H1602.04C1602.09 582.461 1602.14 582.47 1602.18 582.489C1602.23 582.507 1602.26 582.533 1602.3 582.566C1602.33 582.6 1602.36 582.64 1602.38 582.683C1602.39 582.727 1602.4 582.774 1602.4 582.821V584.639H1607.79V582.821C1607.79 582.774 1607.8 582.727 1607.82 582.683C1607.84 582.64 1607.87 582.6 1607.9 582.566C1607.93 582.533 1607.97 582.507 1608.02 582.489C1608.06 582.47 1608.11 582.461 1608.15 582.461H1675.74C1675.79 582.461 1675.83 582.47 1675.88 582.489C1675.92 582.507 1675.96 582.533 1675.99 582.566C1676.03 582.6 1676.05 582.64 1676.07 582.683C1676.09 582.727 1676.1 582.774 1676.1 582.821V584.639H1681.5V582.821C1681.5 582.774 1681.51 582.727 1681.52 582.683C1681.54 582.64 1681.57 582.6 1681.6 582.566C1681.63 582.533 1681.67 582.507 1681.72 582.489C1681.76 582.47 1681.81 582.461 1681.86 582.461H1690.48C1690.58 582.462 1690.67 582.5 1690.74 582.568C1690.8 582.635 1690.84 582.726 1690.84 582.821V584.639H1696.23V582.821C1696.23 582.774 1696.24 582.727 1696.26 582.683C1696.28 582.64 1696.31 582.6 1696.34 582.566C1696.37 582.533 1696.41 582.507 1696.46 582.489C1696.5 582.47 1696.55 582.461 1696.59 582.461H1705.22C1705.27 582.461 1705.32 582.47 1705.36 582.489C1705.4 582.507 1705.44 582.533 1705.48 582.566C1705.51 582.6 1705.54 582.64 1705.55 582.683C1705.57 582.727 1705.58 582.774 1705.58 582.821V584.639H1710.97V582.821C1710.97 582.774 1710.98 582.727 1711 582.683C1711.02 582.64 1711.04 582.6 1711.08 582.566C1711.11 582.533 1711.15 582.507 1711.19 582.489C1711.24 582.47 1711.28 582.461 1711.33 582.461H1719.96C1720.01 582.461 1720.05 582.47 1720.1 582.489C1720.14 582.507 1720.18 582.533 1720.21 582.566C1720.25 582.6 1720.27 582.64 1720.29 582.683C1720.31 582.727 1720.32 582.774 1720.32 582.821V584.639H1725.72V582.821C1725.72 582.774 1725.73 582.727 1725.74 582.683C1725.76 582.64 1725.79 582.6 1725.82 582.566C1725.85 582.533 1725.89 582.507 1725.94 582.489C1725.98 582.47 1726.03 582.461 1726.08 582.461H1734.7C1734.8 582.462 1734.89 582.501 1734.95 582.568C1735.02 582.636 1735.06 582.727 1735.06 582.821V584.639H1740.45V582.821C1740.45 582.774 1740.46 582.727 1740.48 582.683C1740.5 582.64 1740.53 582.6 1740.56 582.566C1740.59 582.533 1740.63 582.507 1740.68 582.489C1740.72 582.47 1740.77 582.461 1740.81 582.461H1749.44C1749.49 582.461 1749.54 582.47 1749.58 582.489C1749.62 582.507 1749.66 582.533 1749.7 582.566C1749.73 582.6 1749.76 582.64 1749.77 582.683C1749.79 582.727 1749.8 582.774 1749.8 582.821V584.639H1755.19V582.821C1755.19 582.774 1755.2 582.727 1755.22 582.683C1755.24 582.64 1755.26 582.6 1755.3 582.566C1755.33 582.533 1755.37 582.507 1755.41 582.489C1755.46 582.47 1755.5 582.461 1755.55 582.461H1764.18C1764.23 582.461 1764.27 582.47 1764.32 582.489C1764.36 582.507 1764.4 582.533 1764.43 582.566C1764.47 582.6 1764.49 582.64 1764.51 582.683C1764.53 582.727 1764.54 582.774 1764.54 582.821V584.639H1789.7C1790.84 584.639 1791.96 584.862 1793.01 585.295C1794.05 585.729 1795 586.364 1795.81 587.166C1796.61 587.967 1797.24 588.918 1797.68 589.965C1798.11 591.012 1798.33 592.134 1798.33 593.267Z" fill="#3F3D56"/>
<path d="M1775.23 429.037H1668.3V426.833H1619.81V429.037H1512.44C1511.49 429.037 1510.55 429.224 1509.67 429.588C1508.8 429.951 1508 430.484 1507.33 431.156C1506.65 431.828 1506.12 432.625 1505.76 433.502C1505.4 434.38 1505.21 435.321 1505.21 436.27V582.693C1505.21 584.611 1505.97 586.451 1507.33 587.808C1508.68 589.164 1510.52 589.926 1512.44 589.926H1775.23C1777.15 589.926 1778.99 589.164 1780.35 587.808C1781.7 586.451 1782.47 584.611 1782.47 582.693V436.27C1782.47 435.321 1782.28 434.38 1781.92 433.502C1781.55 432.625 1781.02 431.828 1780.35 431.156C1779.68 430.484 1778.88 429.951 1778 429.588C1777.12 429.224 1776.18 429.037 1775.23 429.037Z" fill="#3F3D56"/>
<path d="M1644.05 496.218C1652.92 496.218 1660.11 489.027 1660.11 480.157C1660.11 471.287 1652.92 464.096 1644.05 464.096C1635.18 464.096 1627.99 471.287 1627.99 480.157C1627.99 489.027 1635.18 496.218 1644.05 496.218Z" stroke="#D0CDE1" stroke-width="2" stroke-miterlimit="10"/>
<path d="M1638.91 502C1647.78 502 1654.97 494.809 1654.97 485.939C1654.97 477.069 1647.78 469.878 1638.91 469.878C1630.04 469.878 1622.85 477.069 1622.85 485.939C1622.85 494.809 1630.04 502 1638.91 502Z" fill="#D0CDE1"/>
<path d="M1167.31 358.088C1180.23 358.088 1190.69 347.619 1190.69 334.705C1190.69 321.791 1180.23 311.322 1167.31 311.322C1154.4 311.322 1143.93 321.791 1143.93 334.705C1143.93 347.619 1154.4 358.088 1167.31 358.088Z" fill="#2F2E41"/>
<path d="M1173.83 311.966C1177.87 311.967 1181.85 313.017 1185.37 315.015C1188.89 317.013 1191.83 319.89 1193.9 323.365C1195.98 326.839 1197.11 330.793 1197.2 334.838C1197.29 338.884 1196.33 342.883 1194.41 346.446C1196.44 343.909 1197.91 340.979 1198.75 337.84C1199.58 334.701 1199.75 331.424 1199.24 328.216C1198.74 325.009 1197.57 321.942 1195.81 319.21C1194.06 316.479 1191.75 314.143 1189.04 312.352C1186.34 310.561 1183.28 309.354 1180.08 308.807C1176.88 308.261 1173.6 308.387 1170.45 309.178C1167.31 309.969 1164.36 311.407 1161.79 313.401C1159.23 315.395 1157.11 317.901 1155.57 320.759C1157.76 318.015 1160.53 315.799 1163.69 314.277C1166.85 312.754 1170.32 311.964 1173.83 311.966Z" fill="#2F2E41"/>
<path d="M1123.62 334.655C1161.55 334.655 1192.3 303.904 1192.3 265.969C1192.3 228.035 1161.55 197.283 1123.62 197.283C1085.68 197.283 1054.93 228.035 1054.93 265.969C1054.93 303.904 1085.68 334.655 1123.62 334.655Z" fill="#2F2E41"/>
<path d="M1069.71 223.353C1081.55 210.042 1098.09 201.851 1115.85 200.507C1133.61 199.163 1151.2 204.773 1164.9 216.151C1164.34 215.617 1163.78 215.079 1163.2 214.56C1149.58 202.456 1131.72 196.257 1113.53 197.326C1095.35 198.395 1078.33 206.644 1066.23 220.259C1054.13 233.873 1047.93 251.738 1049 269.924C1050.06 288.109 1058.31 305.125 1071.93 317.228C1072.51 317.747 1073.11 318.236 1073.71 318.731C1060.8 306.455 1053.17 289.646 1052.43 271.85C1051.68 254.055 1057.88 236.665 1069.71 223.353Z" fill="#2F2E41"/>
<path d="M1123.04 334.073C1147.47 334.073 1167.27 314.267 1167.27 289.835C1167.27 265.402 1147.47 245.596 1123.04 245.596C1098.6 245.596 1078.8 265.402 1078.8 289.835C1078.8 314.267 1098.6 334.073 1123.04 334.073Z" fill="#A0616A"/>
<path d="M1091.6 303.805C1091.6 303.805 1097.42 357.357 1088.11 363.178C1078.8 368.999 1141.66 377.148 1141.66 377.148C1141.66 377.148 1132.35 318.939 1155.63 303.805L1091.6 303.805Z" fill="#A0616A"/>
<path d="M1147.48 353.864C1147.48 353.864 1164.82 345.769 1139.85 348.653C1114.89 351.536 1093.35 340.476 1093.35 340.476C1093.35 340.476 1085.78 332.909 1084.62 341.058C1083.45 349.208 1088.11 364.342 1062.5 366.67C1036.89 368.999 1013.6 362.014 1004.29 379.476C994.976 396.939 999.633 472.61 999.633 472.61C999.633 472.61 1017.1 535.476 1031.07 544.789C1045.04 554.102 1167.27 541.297 1167.27 541.297L1202.2 478.431V405.088C1202.2 405.088 1197.54 379.476 1164.95 386.461C1164.95 386.461 1143.99 381.805 1145.15 371.327C1146.32 360.849 1147.48 353.864 1147.48 353.864Z" fill="#D0CDE1"/>
<path d="M1035.69 589.278C1036.41 586.143 1036.89 584.369 1036.89 584.369L1036.51 581.819L1032.68 555.774L1031.07 544.788C1045.03 538.967 1048.53 512.19 1048.53 512.19L1049.06 511.875L1051.44 510.449V510.442L1060 505.309L1060.17 505.206L1063.63 507.506L1070.65 512.19C1079.85 519.059 1090.39 523.932 1101.59 526.497C1112.78 529.063 1124.39 529.264 1135.67 527.088C1140.92 526.189 1146.05 524.706 1150.97 522.668L1167.91 517.021L1168.44 516.847L1168.96 516.925L1178.89 518.428L1179.07 518.46L1179.89 518.582L1177.59 534.483L1174.26 557.592C1183.06 562.256 1190.9 571.019 1197.74 581.819C1199.26 584.209 1200.73 586.695 1202.15 589.278C1204 592.618 1205.77 596.094 1207.45 599.653C1207.66 600.077 1207.86 600.508 1208.06 600.938C1208.71 602.332 1209.35 603.739 1209.97 605.153H1032.6C1032.83 603.733 1033.06 602.377 1033.29 601.073C1033.3 601.029 1033.31 600.984 1033.32 600.938C1033.4 600.501 1033.48 600.077 1033.55 599.653C1034.33 595.413 1035.09 591.873 1035.69 589.278Z" fill="#2F2E41"/>
<path d="M1028.74 365.506C1028.74 365.506 1041.54 388.79 1036.89 417.894C1032.23 446.998 1050.86 519.177 1050.86 519.177L1064.83 515.685C1064.83 515.685 1055.51 455.148 1057.84 441.178C1060.17 427.207 1060.17 372.491 1048.53 365.506C1036.89 358.521 1028.74 365.506 1028.74 365.506Z" fill="#2F2E41"/>
<path d="M1164.13 389.702L1169.02 518.595L1178.33 524.416C1178.33 524.416 1191.72 382.969 1184.74 382.969H1170.52C1169.66 382.969 1168.8 383.145 1168 383.488C1167.2 383.831 1166.48 384.332 1165.88 384.962C1165.28 385.592 1164.82 386.337 1164.52 387.152C1164.21 387.967 1164.08 388.835 1164.13 389.702Z" fill="#2F2E41"/>
<path d="M1057.26 516.267C1060.47 516.267 1063.08 513.661 1063.08 510.446C1063.08 507.231 1060.47 504.625 1057.26 504.625C1054.04 504.625 1051.44 507.231 1051.44 510.446C1051.44 513.661 1054.04 516.267 1057.26 516.267Z" fill="#6C63FF"/>
<path d="M1173.68 522.088C1176.89 522.088 1179.5 519.482 1179.5 516.267C1179.5 513.052 1176.89 510.446 1173.68 510.446C1170.46 510.446 1167.86 513.052 1167.86 516.267C1167.86 519.482 1170.46 522.088 1173.68 522.088Z" fill="#6C63FF"/>
<path d="M1085.2 234.536V278.775H1095.45L1108.48 264.805L1106.74 278.775H1152.02L1149.23 264.805L1154.82 278.775H1162.04V234.536H1085.2Z" fill="#2F2E41"/>
<path d="M1078.21 286.924C1080.14 286.924 1081.71 284.058 1081.71 280.521C1081.71 276.985 1080.14 274.118 1078.21 274.118C1076.29 274.118 1074.72 276.985 1074.72 280.521C1074.72 284.058 1076.29 286.924 1078.21 286.924Z" fill="#A0616A"/>
<path d="M1167.86 286.924C1169.79 286.924 1171.35 284.058 1171.35 280.521C1171.35 276.985 1169.79 274.118 1167.86 274.118C1165.93 274.118 1164.36 276.985 1164.36 280.521C1164.36 284.058 1165.93 286.924 1167.86 286.924Z" fill="#A0616A"/>
<path d="M1191.72 515.685C1191.72 515.685 1138.75 505.789 1135.26 523.252C1131.77 540.714 1194.05 533.147 1194.05 533.147L1191.72 515.685Z" fill="#A0616A"/>
<path d="M1190.56 395.775C1190.56 395.775 1317.45 497.058 1294.17 521.506C1270.89 545.953 1182.41 538.968 1182.41 538.968L1188.23 509.864L1239.45 504.043L1213.84 478.431L1190.56 480.759V395.775Z" fill="#D0CDE1"/>
<path d="M1003.13 564.58L1019.42 577.386C1019.42 577.386 1031.07 613.475 1048.53 602.998C1065.99 592.52 1032.23 555.267 1032.23 555.267L1012.44 548.282L1003.13 564.58Z" fill="#A0616A"/>
<path d="M1019.42 377.148L1003.17 382.039C1003.17 382.039 890.201 465.625 885.544 488.909C880.887 512.192 907.663 524.998 907.663 524.998L1008.95 572.729L1019.42 544.789L971.693 520.341C971.693 520.341 975.185 513.356 961.215 512.192C947.245 511.028 944.917 495.894 944.917 495.894C944.917 495.894 972.857 452.819 987.991 462.133C1003.13 471.446 1007.78 478.431 1007.78 478.431L1019.42 377.148Z" fill="#D0CDE1"/>
<path d="M1251.26 593.267V597.167C1251.26 598.237 1251.07 599.299 1250.68 600.296C1250.5 600.74 1250.3 601.17 1250.05 601.581C1249.29 602.866 1248.2 603.93 1246.9 604.669C1245.6 605.408 1244.13 605.796 1242.63 605.795H955.745C954.249 605.796 952.779 605.408 951.478 604.669C950.177 603.93 949.091 602.866 948.325 601.581C948.083 601.17 947.874 600.74 947.702 600.296C947.313 599.299 947.115 598.237 947.117 597.167V593.267C947.117 592.134 947.34 591.012 947.773 589.965C948.207 588.918 948.842 587.967 949.644 587.166C950.445 586.364 951.396 585.729 952.443 585.295C953.49 584.862 954.612 584.639 955.745 584.639H972.282V582.821C972.282 582.774 972.291 582.727 972.309 582.683C972.327 582.64 972.354 582.6 972.387 582.566C972.421 582.533 972.46 582.507 972.504 582.489C972.548 582.47 972.595 582.461 972.642 582.461H981.27C981.317 582.461 981.364 582.47 981.408 582.489C981.451 582.507 981.491 582.533 981.525 582.566C981.558 582.6 981.585 582.64 981.603 582.683C981.621 582.727 981.63 582.774 981.63 582.821V584.639H987.02V582.821C987.02 582.774 987.029 582.727 987.047 582.683C987.065 582.64 987.092 582.6 987.125 582.566C987.159 582.533 987.198 582.507 987.242 582.489C987.286 582.47 987.332 582.461 987.38 582.461H996.008C996.055 582.461 996.102 582.47 996.146 582.489C996.189 582.507 996.229 582.533 996.262 582.566C996.296 582.6 996.322 582.64 996.34 582.683C996.358 582.727 996.368 582.774 996.368 582.821V584.639H1001.76V582.821C1001.76 582.774 1001.77 582.727 1001.79 582.683C1001.81 582.64 1001.84 582.6 1001.87 582.566C1001.9 582.533 1001.94 582.507 1001.99 582.489C1002.03 582.47 1002.08 582.461 1002.12 582.461H1010.75C1010.8 582.461 1010.85 582.47 1010.89 582.489C1010.93 582.507 1010.97 582.533 1011.01 582.566C1011.04 582.6 1011.07 582.64 1011.08 582.683C1011.1 582.727 1011.11 582.774 1011.11 582.821V584.639H1016.5V582.821C1016.5 582.774 1016.51 582.727 1016.53 582.683C1016.55 582.64 1016.57 582.6 1016.61 582.566C1016.64 582.533 1016.68 582.507 1016.72 582.489C1016.77 582.47 1016.81 582.461 1016.86 582.461H1025.49C1025.54 582.461 1025.58 582.47 1025.63 582.489C1025.67 582.507 1025.71 582.533 1025.74 582.566C1025.78 582.6 1025.8 582.64 1025.82 582.683C1025.84 582.727 1025.85 582.774 1025.85 582.821V584.639H1031.24V582.821C1031.24 582.774 1031.25 582.727 1031.27 582.683C1031.29 582.64 1031.31 582.6 1031.35 582.566C1031.38 582.533 1031.42 582.507 1031.46 582.489C1031.51 582.47 1031.55 582.461 1031.6 582.461H1040.23C1040.28 582.461 1040.32 582.47 1040.37 582.489C1040.41 582.507 1040.45 582.533 1040.48 582.566C1040.52 582.6 1040.54 582.64 1040.56 582.683C1040.58 582.727 1040.59 582.774 1040.59 582.821V584.639H1045.98V582.821C1045.98 582.774 1045.99 582.727 1046.01 582.683C1046.03 582.64 1046.06 582.6 1046.09 582.566C1046.12 582.533 1046.16 582.507 1046.21 582.489C1046.25 582.47 1046.3 582.461 1046.34 582.461H1054.97C1055.02 582.461 1055.07 582.47 1055.11 582.489C1055.15 582.507 1055.19 582.533 1055.23 582.566C1055.26 582.6 1055.29 582.64 1055.3 582.683C1055.32 582.727 1055.33 582.774 1055.33 582.821V584.639H1060.72V582.821C1060.72 582.774 1060.73 582.727 1060.75 582.683C1060.77 582.64 1060.79 582.6 1060.83 582.566C1060.86 582.533 1060.9 582.507 1060.94 582.489C1060.99 582.47 1061.03 582.461 1061.08 582.461H1128.67C1128.72 582.461 1128.76 582.47 1128.81 582.489C1128.85 582.507 1128.89 582.533 1128.92 582.566C1128.96 582.6 1128.98 582.64 1129 582.683C1129.02 582.727 1129.03 582.774 1129.03 582.821V584.639H1134.42V582.821C1134.42 582.774 1134.43 582.727 1134.45 582.683C1134.47 582.64 1134.5 582.6 1134.53 582.566C1134.56 582.533 1134.6 582.507 1134.65 582.489C1134.69 582.47 1134.74 582.461 1134.78 582.461H1143.41C1143.51 582.462 1143.6 582.5 1143.67 582.568C1143.73 582.635 1143.77 582.726 1143.77 582.821V584.639H1149.16V582.821C1149.16 582.774 1149.17 582.727 1149.19 582.683C1149.21 582.64 1149.23 582.6 1149.27 582.566C1149.3 582.533 1149.34 582.507 1149.38 582.489C1149.43 582.47 1149.47 582.461 1149.52 582.461H1158.15C1158.2 582.461 1158.24 582.47 1158.29 582.489C1158.33 582.507 1158.37 582.533 1158.4 582.566C1158.44 582.6 1158.46 582.64 1158.48 582.683C1158.5 582.727 1158.51 582.774 1158.51 582.821V584.639H1163.9V582.821C1163.9 582.774 1163.91 582.727 1163.93 582.683C1163.95 582.64 1163.97 582.6 1164.01 582.566C1164.04 582.533 1164.08 582.507 1164.12 582.489C1164.17 582.47 1164.21 582.461 1164.26 582.461H1172.89C1172.94 582.461 1172.98 582.47 1173.03 582.489C1173.07 582.507 1173.11 582.533 1173.14 582.566C1173.18 582.6 1173.2 582.64 1173.22 582.683C1173.24 582.727 1173.25 582.774 1173.25 582.821V584.639H1178.64V582.821C1178.64 582.774 1178.65 582.727 1178.67 582.683C1178.69 582.64 1178.72 582.6 1178.75 582.566C1178.78 582.533 1178.82 582.507 1178.87 582.489C1178.91 582.47 1178.96 582.461 1179 582.461H1187.63C1187.73 582.462 1187.82 582.501 1187.88 582.568C1187.95 582.636 1187.99 582.727 1187.99 582.821V584.639H1193.38V582.821C1193.38 582.774 1193.39 582.727 1193.41 582.683C1193.43 582.64 1193.45 582.6 1193.49 582.566C1193.52 582.533 1193.56 582.507 1193.6 582.489C1193.65 582.47 1193.7 582.461 1193.74 582.461H1202.37C1202.42 582.461 1202.46 582.47 1202.51 582.489C1202.55 582.507 1202.59 582.533 1202.63 582.566C1202.66 582.6 1202.68 582.64 1202.7 582.683C1202.72 582.727 1202.73 582.774 1202.73 582.821V584.639H1208.12V582.821C1208.12 582.774 1208.13 582.727 1208.15 582.683C1208.17 582.64 1208.19 582.6 1208.23 582.566C1208.26 582.533 1208.3 582.507 1208.34 582.489C1208.39 582.47 1208.43 582.461 1208.48 582.461H1217.11C1217.16 582.461 1217.2 582.47 1217.25 582.489C1217.29 582.507 1217.33 582.533 1217.36 582.566C1217.4 582.6 1217.42 582.64 1217.44 582.683C1217.46 582.727 1217.47 582.774 1217.47 582.821V584.639H1242.63C1243.77 584.639 1244.89 584.862 1245.94 585.295C1246.98 585.729 1247.93 586.364 1248.73 587.166C1249.54 587.967 1250.17 588.918 1250.6 589.965C1251.04 591.012 1251.26 592.134 1251.26 593.267Z" fill="#3F3D56"/>
<path d="M1228.16 429.034H1121.23V426.83H1072.74V429.034H965.369C963.45 429.034 961.611 429.796 960.254 431.153C958.898 432.509 958.135 434.349 958.135 436.267V582.69C958.135 584.608 958.898 586.448 960.254 587.805C961.611 589.161 963.45 589.923 965.369 589.923H1228.16C1230.08 589.923 1231.92 589.161 1233.27 587.805C1234.63 586.448 1235.39 584.608 1235.39 582.69V436.267C1235.39 434.349 1234.63 432.509 1233.27 431.153C1231.92 429.796 1230.08 429.034 1228.16 429.034Z" fill="#3F3D56"/>
<path d="M1096.97 496.215C1105.85 496.215 1113.04 489.024 1113.04 480.154C1113.04 471.284 1105.85 464.093 1096.97 464.093C1088.1 464.093 1080.91 471.284 1080.91 480.154C1080.91 489.024 1088.1 496.215 1096.97 496.215Z" stroke="#D0CDE1" stroke-width="2" stroke-miterlimit="10"/>
<path d="M1091.84 501.997C1100.71 501.997 1107.9 494.806 1107.9 485.936C1107.9 477.066 1100.71 469.875 1091.84 469.875C1082.96 469.875 1075.77 477.066 1075.77 485.936C1075.77 494.806 1082.96 501.997 1091.84 501.997Z" fill="#D0CDE1"/>
<path d="M1846.85 601H896.845V603H1846.85V601Z" fill="#3F3D56"/>
</g>
<defs>
<filter id="filter0_bf" x="0" y="0" width="1965.17" height="1191.57" filterUnits="userSpaceOnUse" color-interpolation-filters="sRGB">
<feFlood flood-opacity="0" result="BackgroundImageFix"/>
<feGaussianBlur in="BackgroundImage" stdDeviation="2"/>
<feComposite in2="SourceAlpha" operator="in" result="effect1_backgroundBlur"/>
<feBlend mode="normal" in="SourceGraphic" in2="effect1_backgroundBlur" result="shape"/>
<feGaussianBlur stdDeviation="2" result="effect2_foregroundBlur"/>
</filter>
<linearGradient id="paint0_linear" x1="370.236" y1="28.7613" x2="371.683" y2="743.192" gradientUnits="userSpaceOnUse">
<stop stop-color="#3F3D56"/>
<stop offset="1" stop-color="#0183FC"/>
</linearGradient>
<clipPath id="clip0">
<rect x="885" y="169" width="961.845" height="436.795" fill="white"/>
</clipPath>
</defs>
</svg>
