<svg width="1965" height="656" viewBox="0 0 1965 656" fill="none" xmlns="http://www.w3.org/2000/svg">
<g style="mix-blend-mode:multiply" filter="url(#filter0_bf)">
<path d="M1958.79 8.39421C1958.75 10.4255 3.95148 1.52099 4.0089 12.3546C84.3356 107.111 268.651 93.1418 315.611 111.129C379.626 125.206 423.344 127.778 458.658 181.876C527.041 246.316 699.917 206.114 757.444 271.681C814.971 337.247 973.046 360.439 1107.42 360.166C1241.79 359.894 1399.87 480.624 1515.01 466.542C1630.16 452.459 1873.97 679.572 1960.08 643.269L1958.79 8.39421Z" fill="url(#paint0_linear)"/>
<path d="M1958.29 8.94839L1959.58 642.936C1948.99 647.302 1935.98 647.702 1921.04 645.028C1905.96 642.33 1888.97 636.507 1870.6 628.532C1833.87 612.579 1791.75 588.051 1748.69 562.807L1744.69 560.463C1702.92 535.972 1660.41 511.042 1621.23 492.866C1580.83 474.119 1543.89 462.506 1514.95 466.045C1486.26 469.554 1454.86 464.668 1421.78 455.342C1388.7 446.016 1353.97 432.264 1318.61 418.069C1316.72 417.308 1314.82 416.546 1312.92 415.783C1244.01 388.098 1172.92 359.534 1107.42 359.666C1040.26 359.802 967.182 354.074 903.721 340.125C840.235 326.169 786.472 304.007 757.82 271.351C743.34 254.848 721.634 245.033 696.229 238.565C670.822 232.096 641.645 228.958 612.174 225.858L610.473 225.68C581.542 222.638 552.389 219.574 526.217 213.386C499.554 207.083 476.043 197.55 459.044 181.552C427.886 133.855 390.144 126.08 338.051 115.349C330.896 113.875 323.471 112.345 315.755 110.648C303.934 106.131 283.547 103.63 258.461 100.935C255.469 100.614 252.408 100.289 249.286 99.9585C226.176 97.5099 199.696 94.7041 172.407 90.0375C110.64 79.475 44.8689 59.399 4.78931 12.5C4.97363 12.4534 5.21141 12.4043 5.50697 12.354C6.42343 12.198 7.8068 12.0444 9.6519 11.8942C13.3375 11.5942 18.8152 11.3119 25.9707 11.0468C40.2792 10.5166 61.2706 10.0559 87.9929 9.65724C141.436 8.85999 217.789 8.31121 309.416 7.951C492.67 7.2306 737.015 7.26454 981.364 7.57355C1174.72 7.81807 1368.07 8.23482 1531.16 8.58634C1574.17 8.67905 1615.08 8.76723 1653.33 8.84651C1744.97 9.03645 1821.33 9.17533 1874.79 9.20325C1901.51 9.21721 1922.51 9.20343 1936.84 9.15442C1944 9.12991 1949.49 9.09659 1953.19 9.05351C1955.04 9.03198 1956.44 9.00798 1957.39 8.98134C1957.76 8.97087 1958.06 8.95992 1958.29 8.94839Z" stroke="white"/>
</g>
<defs>
<filter id="filter0_bf" x="0" y="-7.62939e-06" width="1964.09" height="655.122" filterUnits="userSpaceOnUse" color-interpolation-filters="sRGB">
<feFlood flood-opacity="0" result="BackgroundImageFix"/>
<feGaussianBlur in="BackgroundImage" stdDeviation="2"/>
<feComposite in2="SourceAlpha" operator="in" result="effect1_backgroundBlur"/>
<feBlend mode="normal" in="SourceGraphic" in2="effect1_backgroundBlur" result="shape"/>
<feGaussianBlur stdDeviation="2" result="effect2_foregroundBlur"/>
</filter>
<linearGradient id="paint0_linear" x1="370.216" y1="18.9644" x2="371.005" y2="408.497" gradientUnits="userSpaceOnUse">
<stop stop-color="#3F3D56"/>
<stop offset="1" stop-color="#0183FC"/>
</linearGradient>
</defs>
</svg>
