<svg width="1956" height="934" viewBox="0 0 1956 934" fill="none" xmlns="http://www.w3.org/2000/svg">
<path d="M179.5 263C357.1 311.4 349 420 454 468.5C559 517 622.698 501.888 720.5 549.5C847.764 611.455 915.233 663.735 1007 771.5C1098.77 879.265 1295.89 864.903 1487 896.5C1667.86 926.403 1955 933 1955 933H6L2.95009 79.0013C-0.126047 56.7561 0.3174 35.7851 2.73257 18.0927L2.95009 79.0013C12.4954 148.028 55.9297 229.324 179.5 263Z" fill="#C4C4C4"/>
<path d="M179.5 263C357.1 311.4 349 420 454 468.5C559 517 622.698 501.888 720.5 549.5C847.764 611.455 915.233 663.735 1007 771.5C1098.77 879.265 1295.89 864.903 1487 896.5C1667.86 926.403 1955 933 1955 933H6L2.95009 79.0013C-0.126047 56.7561 0.3174 35.7851 2.73257 18.0927L2.95009 79.0013C12.4954 148.028 55.9297 229.324 179.5 263Z" fill="url(#paint0_linear)"/>
<path d="M6 0.5C4.70676 5.88627 3.59419 11.7808 2.73257 18.0927M2.73257 18.0927C-7.17689 90.6848 16.1069 218.472 179.5 263C357.1 311.4 349 420 454 468.5C559 517 622.698 501.888 720.5 549.5C847.764 611.455 915.233 663.735 1007 771.5C1098.77 879.265 1295.89 864.903 1487 896.5C1667.86 926.403 1955 933 1955 933H6L2.73257 18.0927Z" stroke="black"/>
<path d="M6 0.5C4.70676 5.88627 3.59419 11.7808 2.73257 18.0927M2.73257 18.0927C-7.17689 90.6848 16.1069 218.472 179.5 263C357.1 311.4 349 420 454 468.5C559 517 622.698 501.888 720.5 549.5C847.764 611.455 915.233 663.735 1007 771.5C1098.77 879.265 1295.89 864.903 1487 896.5C1667.86 926.403 1955 933 1955 933H6L2.73257 18.0927Z" stroke="url(#paint1_linear)"/>
<defs>
<linearGradient id="paint0_linear" x1="208" y1="302" x2="197" y2="852.5" gradientUnits="userSpaceOnUse">
<stop stop-color="#0183FC"/>
<stop offset="0.989583" stop-color="#2F2E41"/>
</linearGradient>
<linearGradient id="paint1_linear" x1="977.891" y1="0.5" x2="977.891" y2="933" gradientUnits="userSpaceOnUse">
<stop stop-color="white"/>
<stop offset="1" stop-color="white" stop-opacity="0"/>
</linearGradient>
</defs>
</svg>
